<?xml version="1.0" standalone="no"?><!DOCTYPE svg PUBLIC "-//W3C//DTD SVG 1.1//EN" "http://www.w3.org/Graphics/SVG/1.1/DTD/svg11.dtd"><svg t="1491960733052" class="icon" style="" viewBox="0 0 1024 1024" version="1.1" xmlns="http://www.w3.org/2000/svg" p-id="6595" xmlns:xlink="http://www.w3.org/1999/xlink" width="200" height="200"><defs><style type="text/css"></style></defs><path d="M512 0c19.2 0 32 12.8 32 32v134.4c0 19.2-12.8 32-32 32s-32-12.8-32-32V32c0-19.2 12.8-32 32-32z m0 825.6c19.2 0 32 12.8 32 32V992c0 19.2-12.8 32-32 32s-32-12.8-32-32V857.6c0-19.2 12.8-32 32-32zM1024 512c0 19.2-12.8 32-32 32H857.6c-19.2 0-32-12.8-32-32s12.8-32 32-32H992c19.2 0 32 12.8 32 32z m-825.6 0c0 19.2-12.8 32-32 32H32c-19.2 0-32-12.8-32-32s12.8-32 32-32h134.4c19.2 0 32 12.8 32 32z m755.2-256c6.4 12.8 6.4 32-12.8 44.8l-115.2 70.4c-12.8 6.4-32 6.4-44.8-12.8-6.4-12.8-6.4-32 12.8-44.8l115.2-70.4c19.2-6.4 38.4-6.4 44.8 12.8zM243.2 665.6c6.4 12.8 6.4 32-12.8 44.8l-115.2 70.4c-12.8 6.4-32 6.4-44.8-12.8-6.4-12.8-6.4-32 12.8-44.8l115.2-70.4c12.8-6.4 32 0 44.8 12.8zM768 70.4c12.8 6.4 19.2 25.6 12.8 44.8l-70.4 115.2c-6.4 12.8-25.6 19.2-44.8 12.8-12.8-6.4-19.2-25.6-12.8-44.8l70.4-115.2C736 64 755.2 57.6 768 70.4zM358.4 780.8c12.8 6.4 19.2 25.6 12.8 44.8l-70.4 115.2C288 960 268.8 960 256 953.6c-12.8-6.4-19.2-25.6-12.8-44.8l70.4-115.2c6.4-19.2 25.6-19.2 44.8-12.8zM256 70.4c12.8-12.8 32-6.4 44.8 6.4L371.2 192c6.4 12.8 6.4 32-12.8 44.8-19.2 12.8-38.4 6.4-44.8-6.4l-70.4-121.6c-6.4-12.8 0-32 12.8-38.4z m409.6 710.4c12.8-6.4 32-6.4 44.8 12.8l70.4 115.2c6.4 12.8 6.4 32-12.8 44.8-12.8 6.4-32 6.4-44.8-12.8l-70.4-115.2c-6.4-19.2 0-38.4 12.8-44.8zM70.4 256c6.4-12.8 25.6-19.2 44.8-12.8l115.2 70.4c12.8 6.4 19.2 25.6 12.8 38.4-12.8 19.2-32 25.6-44.8 12.8l-115.2-64C64 288 57.6 268.8 70.4 256z m710.4 409.6c6.4-12.8 25.6-19.2 44.8-12.8l115.2 70.4c12.8 6.4 19.2 25.6 12.8 44.8-6.4 12.8-25.6 19.2-44.8 12.8l-115.2-70.4c-12.8-6.4-19.2-25.6-12.8-44.8z m0 0" fill="" p-id="6596"></path></svg>